RobotoFlex_YTUC528.ufo
<glyph name="B" format="2">
  <advance width="1260"/>
  <unicode hex="0042"/>
  <outline>
    <contour>
      <point x="170" y="0" type="line"/>
      <point x="170" y="1082" type="line"/>
      <point x="670" y="1082" type="line" smooth="yes"/>
      <point x="890.0" y="1082.0"/>
      <point x="1122" y="944"/>
      <point x="1122" y="795" type="qcurve" smooth="yes"/>
      <point x="1122" y="706"/>
      <point x="1000" y="594"/>
      <point x="910" y="571" type="qcurve"/>
      <point x="910" y="568" type="line"/>
      <point x="1020" y="544"/>
      <point x="1160" y="416"/>
      <point x="1160" y="312" type="qcurve" smooth="yes"/>
      <point x="1160" y="163"/>
      <point x="917.0" y="0.0"/>
      <point x="700" y="0" type="qcurve" smooth="yes"/>
    </contour>
    <contour>
      <point x="358" y="158" type="line"/>
      <point x="700" y="158" type="line" smooth="yes"/>
      <point x="850.0" y="158.0"/>
      <point x="970" y="241.7128205128"/>
      <point x="970" y="312" type="qcurve" smooth="yes"/>
      <point x="970" y="391.7772020725"/>
      <point x="850.0" y="485.0"/>
      <point x="700" y="485" type="qcurve" smooth="yes"/>
      <point x="358" y="485" type="line"/>
    </contour>
    <contour>
      <point x="358" y="641" type="line"/>
      <point x="670" y="641" type="line" smooth="yes"/>
      <point x="820.0" y="641.0"/>
      <point x="932" y="722.4252873563"/>
      <point x="932" y="795" type="qcurve" smooth="yes"/>
      <point x="932" y="857.5917159763"/>
      <point x="820.0" y="924.0"/>
      <point x="670" y="924" type="qcurve" smooth="yes"/>
      <point x="358" y="924" type="line"/>
    </contour>
  </outline>
</glyph>
<glyph name="E" format="2">
  <advance width="1162"/>
  <unicode hex="0045"/>
  <outline>
    <contour>
      <point x="170" y="0" type="line"/>
      <point x="170" y="1082" type="line"/>
      <point x="1084" y="1082" type="line"/>
      <point x="1084" y="924" type="line"/>
      <point x="362" y="924" type="line"/>
      <point x="362" y="638" type="line"/>
      <point x="992" y="638" type="line"/>
      <point x="992" y="480" type="line"/>
      <point x="362" y="480" type="line"/>
      <point x="362" y="158" type="line"/>
      <point x="1094" y="158" type="line"/>
      <point x="1094" y="0" type="line"/>
    </contour>
  </outline>
</glyph>
<glyph name="F" format="2">
  <advance width="1130"/>
  <unicode hex="0046"/>
  <anchor x="565.0" y="0" name="bottom"/>
  <anchor x="623.0" y="1082" name="top"/>
  <outline>
    <contour>
      <point x="170" y="0" type="line"/>
      <point x="170" y="1082" type="line"/>
      <point x="1072" y="1082" type="line"/>
      <point x="1072" y="924" type="line"/>
      <point x="362" y="924" type="line"/>
      <point x="362" y="616" type="line"/>
      <point x="973" y="616" type="line"/>
      <point x="973" y="458" type="line"/>
      <point x="362" y="458" type="line"/>
      <point x="362" y="0" type="line"/>
    </contour>
  </outline>
</glyph>
<glyph name="G" format="2">
  <advance width="1407"/>
  <unicode hex="0047"/>
  <outline>
    <contour>
      <point x="115" y="507" type="qcurve" smooth="yes"/>
      <point x="115" y="575" type="line" smooth="yes"/>
      <point x="115" y="825"/>
      <point x="460" y="1104"/>
      <point x="720" y="1104" type="qcurve" smooth="yes"/>
      <point x="980" y="1104"/>
      <point x="1259" y="906"/>
      <point x="1277" y="773" type="qcurve" smooth="yes"/>
      <point x="1278" y="765" type="line"/>
      <point x="1086" y="765" type="line"/>
      <point x="1085" y="773" type="line" smooth="yes"/>
      <point x="1077.5617819459" y="832.5057444328"/>
      <point x="900" y="940"/>
      <point x="720" y="940" type="qcurve" smooth="yes"/>
      <point x="540" y="940"/>
      <point x="309" y="745.3931203931"/>
      <point x="309" y="575" type="qcurve" smooth="yes"/>
      <point x="309" y="507" type="line" smooth="yes"/>
      <point x="309" y="336.6068796069"/>
      <point x="540" y="142"/>
      <point x="750" y="142" type="qcurve" smooth="yes"/>
      <point x="860" y="142"/>
      <point x="1020" y="176"/>
      <point x="1092" y="213" type="qcurve"/>
      <point x="1092" y="403" type="line"/>
      <point x="730" y="403" type="line"/>
      <point x="730" y="561" type="line"/>
      <point x="1278" y="561" type="line"/>
      <point x="1278" y="119" type="line"/>
      <point x="1210" y="67"/>
      <point x="940" y="-22"/>
      <point x="750" y="-22" type="qcurve" smooth="yes"/>
      <point x="460" y="-22"/>
      <point x="115" y="257"/>
    </contour>
  </outline>
</glyph>
<glyph name="H" format="2">
  <advance width="1458"/>
  <unicode hex="0048"/>
  <outline>
    <contour>
      <point x="170" y="0" type="line"/>
      <point x="170" y="1082" type="line"/>
      <point x="362" y="1082" type="line"/>
      <point x="362" y="637" type="line"/>
      <point x="1096" y="637" type="line"/>
      <point x="1096" y="1082" type="line"/>
      <point x="1288" y="1082" type="line"/>
      <point x="1288" y="0" type="line"/>
      <point x="1096" y="0" type="line"/>
      <point x="1096" y="479" type="line"/>
      <point x="362" y="479" type="line"/>
      <point x="362" y="0" type="line"/>
    </contour>
  </outline>
</glyph>
<glyph name="I" format="2">
  <advance width="542"/>
  <unicode hex="0049"/>
  <anchor x="271.0" y="0" name="bottom"/>
  <anchor x="262" y="0" name="ogonek"/>
  <anchor x="271.0" y="1082" name="top"/>
  <outline>
    <contour>
      <point x="175" y="0" type="line"/>
      <point x="175" y="1082" type="line"/>
      <point x="367" y="1082" type="line"/>
      <point x="367" y="0" type="line"/>
    </contour>
  </outline>
</glyph>
<glyph name="J" format="2">
  <advance width="1100"/>
  <unicode hex="004A"/>
  <outline>
    <contour>
      <point x="25" y="357" type="qcurve" smooth="yes"/>
      <point x="25" y="365" type="line"/>
      <point x="217" y="365" type="line"/>
      <point x="217" y="357" type="line" smooth="yes"/>
      <point x="217" y="252"/>
      <point x="360" y="142"/>
      <point x="485" y="142" type="qcurve" smooth="yes"/>
      <point x="610" y="142"/>
      <point x="753" y="263.0344827586"/>
      <point x="753" y="376" type="qcurve" smooth="yes"/>
      <point x="753" y="1082" type="line"/>
      <point x="945" y="1082" type="line"/>
      <point x="945" y="376" type="line" smooth="yes"/>
      <point x="945" y="192.3076923077"/>
      <point x="690" y="-22"/>
      <point x="485" y="-22" type="qcurve" smooth="yes"/>
      <point x="280" y="-22"/>
      <point x="25" y="181"/>
    </contour>
  </outline>
</glyph>
<glyph name="K" format="2">
  <advance width="1266"/>
  <unicode hex="004B"/>
  <outline>
    <contour>
      <point x="170" y="0" type="line"/>
      <point x="170" y="1082" type="line"/>
      <point x="362" y="1082" type="line"/>
      <point x="362" y="560" type="line"/>
      <point x="990" y="1082" type="line"/>
      <point x="1242" y="1082" type="line"/>
      <point x="362" y="362" type="line"/>
      <point x="362" y="0" type="line"/>
    </contour>
    <contour>
      <point x="1030" y="0" type="line"/>
      <point x="486" y="562" type="line"/>
      <point x="620" y="672" type="line"/>
      <point x="1286" y="0" type="line"/>
    </contour>
  </outline>
</glyph>
<glyph name="O" format="2">
  <advance width="1460"/>
  <unicode hex="004F"/>
  <outline>
    <contour>
      <point x="115" y="507" type="qcurve" smooth="yes"/>
      <point x="115" y="575" type="line" smooth="yes"/>
      <point x="115" y="828.7807183365"/>
      <point x="460" y="1112"/>
      <point x="730" y="1112" type="qcurve" smooth="yes"/>
      <point x="1000" y="1112"/>
      <point x="1345" y="828.7807183365"/>
      <point x="1345" y="575" type="qcurve" smooth="yes"/>
      <point x="1345" y="507" type="line" smooth="yes"/>
      <point x="1345" y="253.2192816635"/>
      <point x="1000" y="-30"/>
      <point x="730" y="-30" type="qcurve" smooth="yes"/>
      <point x="460" y="-30"/>
      <point x="115" y="253.2192816635"/>
    </contour>
    <contour>
      <point x="309" y="507" type="line" smooth="yes"/>
      <point x="309" y="332.8722358722"/>
      <point x="540" y="134"/>
      <point x="730" y="134" type="qcurve" smooth="yes"/>
      <point x="920" y="134"/>
      <point x="1151" y="332.8722358722"/>
      <point x="1151" y="507" type="qcurve" smooth="yes"/>
      <point x="1151" y="575" type="line" smooth="yes"/>
      <point x="1151" y="749.1277641278"/>
      <point x="920" y="948"/>
      <point x="730" y="948" type="qcurve" smooth="yes"/>
      <point x="540" y="948"/>
      <point x="309" y="749.1277641278"/>
      <point x="309" y="575" type="qcurve" smooth="yes"/>
    </contour>
  </outline>
</glyph>
<glyph name="R" format="2">
  <advance width="1250"/>
  <unicode hex="0052"/>
  <outline>
    <contour>
      <point x="170" y="0" type="line"/>
      <point x="170" y="1082" type="line"/>
      <point x="644" y="1082" type="line" smooth="yes"/>
      <point x="878" y="1082"/>
      <point x="1132" y="908"/>
      <point x="1132" y="764" type="qcurve" smooth="yes"/>
      <point x="1132" y="610.6377708978"/>
      <point x="878" y="420"/>
      <point x="644" y="420" type="qcurve" smooth="yes"/>
      <point x="362" y="420" type="line"/>
      <point x="362" y="0" type="line"/>
    </contour>
    <contour>
      <point x="362" y="578" type="line"/>
      <point x="644" y="578" type="line" smooth="yes"/>
      <point x="810" y="578"/>
      <point x="940" y="686.7246376812"/>
      <point x="940" y="764" type="qcurve" smooth="yes"/>
      <point x="940" y="832.1188118812"/>
      <point x="810" y="924"/>
      <point x="644" y="924" type="qcurve" smooth="yes"/>
      <point x="362" y="924" type="line"/>
    </contour>
    <contour>
      <point x="996" y="0" type="line"/>
      <point x="640" y="499" type="line"/>
      <point x="846" y="499" type="line"/>
      <point x="1210" y="0" type="line"/>
    </contour>
  </outline>
</glyph>
<glyph name="T" format="2">
  <advance width="1176"/>
  <unicode hex="0054"/>
  <anchor x="588.0" y="0" name="bottom"/>
  <anchor x="588.0" y="567.0" name="center"/>
  <anchor x="588.0" y="1082" name="top"/>
  <outline>
    <contour>
      <point x="24" y="924" type="line"/>
      <point x="24" y="1082" type="line"/>
      <point x="1152" y="1082" type="line"/>
      <point x="1152" y="924" type="line"/>
      <point x="684" y="924" type="line"/>
      <point x="684" y="0" type="line"/>
      <point x="492" y="0" type="line"/>
      <point x="492" y="924" type="line"/>
    </contour>
  </outline>
</glyph>
<glyph name="U" format="2">
  <advance width="1364"/>
  <unicode hex="0055"/>
  <outline>
    <contour>
      <point x="155" y="409" type="qcurve" smooth="yes"/>
      <point x="155" y="1082" type="line"/>
      <point x="347" y="1082" type="line"/>
      <point x="347" y="409" type="line" smooth="yes"/>
      <point x="347" y="273.5652173913"/>
      <point x="532" y="142"/>
      <point x="682" y="142" type="qcurve" smooth="yes"/>
      <point x="832" y="142"/>
      <point x="1017" y="273.5652173913"/>
      <point x="1017" y="409" type="qcurve" smooth="yes"/>
      <point x="1017" y="1082" type="line"/>
      <point x="1209" y="1082" type="line"/>
      <point x="1209" y="409" type="line" smooth="yes"/>
      <point x="1209" y="192.9191374663"/>
      <point x="902" y="-22"/>
      <point x="682" y="-22" type="qcurve" smooth="yes"/>
      <point x="462" y="-22"/>
      <point x="155" y="192.9191374663"/>
    </contour>
  </outline>
</glyph>
<glyph name="V" format="2">
  <advance width="1260"/>
  <unicode hex="0056"/>
  <outline>
    <contour>
      <point x="0" y="1082" type="line"/>
      <point x="200" y="1082" type="line"/>
      <point x="586" y="281" type="line" smooth="yes"/>
      <point x="598" y="256"/>
      <point x="618" y="210"/>
      <point x="627" y="186" type="qcurve"/>
      <point x="637" y="186" type="line"/>
      <point x="646" y="210"/>
      <point x="666" y="256"/>
      <point x="678" y="281" type="qcurve" smooth="yes"/>
      <point x="1068" y="1082" type="line"/>
      <point x="1260" y="1082" type="line"/>
      <point x="716" y="-7" type="line"/>
      <point x="544" y="-7" type="line"/>
    </contour>
  </outline>
</glyph>
<glyph name="AE" format="2">
  <advance width="1914"/>
  <unicode hex="00C6"/>
  <outline>
    <contour>
      <point x="325" y="259" type="line"/>
      <point x="452" y="408" type="line"/>
      <point x="1005" y="408" type="line"/>
      <point x="1008" y="259" type="line"/>
    </contour>
    <contour>
      <point x="-15" y="0" type="line"/>
      <point x="866" y="1081" type="line"/>
      <point x="1836" y="1081" type="line"/>
      <point x="1836" y="923" type="line"/>
      <point x="1122" y="923" type="line"/>
      <point x="1122" y="630" type="line"/>
      <point x="1744" y="630" type="line"/>
      <point x="1744" y="472" type="line"/>
      <point x="1122" y="472" type="line"/>
      <point x="1122" y="158" type="line"/>
      <point x="1846" y="158" type="line"/>
      <point x="1846" y="0" type="line"/>
      <point x="930" y="0" type="line"/>
      <point x="930" y="903" type="line"/>
      <point x="202" y="0" type="line"/>
    </contour>
  </outline>
</glyph>
<glyph name="Schwa" format="2">
  <advance width="1446"/>
  <unicode hex="018F"/>
  <outline>
    <contour>
      <point x="64" y="876" type="line"/>
      <point x="162" y="990"/>
      <point x="452" y="1107"/>
      <point x="669" y="1107" type="qcurve" smooth="yes"/>
      <point x="1002" y="1107"/>
      <point x="1366" y="791"/>
      <point x="1366" y="571" type="qcurve" smooth="yes"/>
      <point x="1366" y="323"/>
      <point x="982" y="-30"/>
      <point x="692" y="-30" type="qcurve" smooth="yes"/>
      <point x="416" y="-30"/>
      <point x="102" y="232.0"/>
      <point x="102" y="488" type="qcurve" smooth="yes"/>
      <point x="102" y="596" type="line"/>
      <point x="1228" y="596" type="line"/>
      <point x="1228" y="464" type="line"/>
      <point x="665" y="472" type="line"/>
      <point x="298.0" y="466" type="line"/>
      <point x="298.0" y="400" type="line" smooth="yes"/>
      <point x="298" y="246"/>
      <point x="497.0" y="97"/>
      <point x="696.0" y="97" type="qcurve" smooth="yes"/>
      <point x="912.0" y="97"/>
      <point x="1177.0" y="348"/>
      <point x="1175.0" y="538" type="qcurve" smooth="yes"/>
      <point x="1173.0" y="735"/>
      <point x="860" y="962"/>
      <point x="651.0" y="962" type="qcurve" smooth="yes"/>
      <point x="487" y="962"/>
      <point x="232.0" y="844"/>
      <point x="170.0" y="779" type="qcurve"/>
    </contour>
  </outline>
</glyph>
<glyph name="commaaccentturned" format="2">
  <advance width="1024"/>
  <unicode hex="02BB"/>
  <outline>
    <contour>
      <point x="747.5799999999999" y="1663.0" type="line"/>
      <point x="718.5799999999999" y="1559.0"/>
      <point x="682.5799999999999" y="1419.0"/>
      <point x="659.5799999999999" y="1291.0" type="qcurve"/>
      <point x="457.5799999999999" y="1289.0" type="line"/>
      <point x="584.5799999999999" y="1666.0" type="line"/>
    </contour>
  </outline>
</glyph>
<glyph name="numeralsign" format="2">
  <advance width="574"/>
  <unicode hex="0374"/>
  <outline>
    <contour>
      <point x="233" y="1073" type="line"/>
      <point x="110" y="1103" type="line"/>
      <point x="199" y="1556" type="line"/>
      <point x="384" y="1537" type="line"/>
    </contour>
  </outline>
</glyph>
<glyph name="Delta" format="2">
  <advance width="1294"/>
  <unicode hex="0394"/>
  <outline>
    <contour>
      <point x="29" y="0" type="line"/>
      <point x="29" y="107" type="line"/>
      <point x="561" y="1082" type="line"/>
      <point x="733" y="1082" type="line"/>
      <point x="1266" y="107" type="line"/>
      <point x="1266" y="0" type="line"/>
    </contour>
    <contour>
      <point x="240" y="158" type="line"/>
      <point x="1047" y="158" type="line"/>
      <point x="697" y="786" type="line" smooth="yes"/>
      <point x="680" y="816"/>
      <point x="657" y="861"/>
      <point x="650" y="894" type="qcurve"/>
      <point x="640" y="894" type="line"/>
      <point x="633" y="861"/>
      <point x="609" y="815"/>
      <point x="593" y="786" type="qcurve" smooth="yes"/>
    </contour>
  </outline>
</glyph>
<glyph name="Theta" format="2">
  <advance width="1460"/>
  <unicode hex="0398"/>
  <outline>
    <contour>
      <point x="730.0" y="-30" type="qcurve" smooth="yes"/>
      <point x="460.0" y="-30"/>
      <point x="115.0" y="255"/>
      <point x="115.0" y="510" type="qcurve" smooth="yes"/>
      <point x="115.0" y="579" type="line" smooth="yes"/>
      <point x="115.0" y="834"/>
      <point x="460.0" y="1119"/>
      <point x="730.0" y="1119" type="qcurve" smooth="yes"/>
      <point x="1000.0" y="1119"/>
      <point x="1345.0" y="834"/>
      <point x="1345.0" y="579" type="qcurve" smooth="yes"/>
      <point x="1345.0" y="510" type="line" smooth="yes"/>
      <point x="1345.0" y="255"/>
      <point x="1000.0" y="-30"/>
    </contour>
    <contour>
      <point x="730.0" y="134" type="qcurve" smooth="yes"/>
      <point x="920.0" y="134"/>
      <point x="1151.0" y="308"/>
      <point x="1151.0" y="493" type="qcurve" smooth="yes"/>
      <point x="1151.0" y="559" type="line" smooth="yes"/>
      <point x="1151.0" y="744"/>
      <point x="920.0" y="955"/>
      <point x="730.0" y="955" type="qcurve" smooth="yes"/>
      <point x="540.0" y="955"/>
      <point x="309.0" y="744"/>
      <point x="309.0" y="559" type="qcurve" smooth="yes"/>
      <point x="309.0" y="493" type="line" smooth="yes"/>
      <point x="309.0" y="308"/>
      <point x="540.0" y="134"/>
    </contour>
    <contour>
      <point x="468" y="449" type="line"/>
      <point x="468" y="617" type="line"/>
      <point x="992" y="617" type="line"/>
      <point x="992" y="449" type="line"/>
    </contour>
  </outline>
</glyph>
<glyph name="Omega" format="2">
  <advance width="1478"/>
  <unicode hex="03A9"/>
  <outline>
    <contour>
      <point x="115" y="0" type="line"/>
      <point x="115" y="159" type="line"/>
      <point x="447" y="159" type="line"/>
      <point x="447.0" y="229" type="line"/>
      <point x="291.0" y="277"/>
      <point x="115.0" y="472"/>
      <point x="115.0" y="632" type="qcurve"/>
      <point x="115.0" y="675" type="line"/>
      <point x="115.0" y="889"/>
      <point x="455.0" y="1131"/>
      <point x="739.0" y="1131" type="qcurve"/>
      <point x="1023.0" y="1131"/>
      <point x="1363.0" y="889"/>
      <point x="1363.0" y="675" type="qcurve"/>
      <point x="1363.0" y="632" type="line"/>
      <point x="1363.0" y="472"/>
      <point x="1187.0" y="277"/>
      <point x="1031.0" y="229" type="qcurve"/>
      <point x="1031" y="159" type="line"/>
      <point x="1363" y="159" type="line"/>
      <point x="1363" y="0" type="line"/>
      <point x="859" y="0" type="line"/>
      <point x="859.0" y="357" type="line"/>
      <point x="1018.0" y="379"/>
      <point x="1169.0" y="529"/>
      <point x="1169.0" y="635" type="qcurve"/>
      <point x="1169.0" y="666" type="line"/>
      <point x="1169.0" y="809"/>
      <point x="940.0" y="967"/>
      <point x="739.0" y="967" type="qcurve"/>
      <point x="538.0" y="967"/>
      <point x="309.0" y="809"/>
      <point x="309.0" y="666" type="qcurve"/>
      <point x="309.0" y="635" type="line"/>
      <point x="309.0" y="529"/>
      <point x="460.0" y="379"/>
      <point x="619.0" y="357" type="qcurve"/>
      <point x="619" y="0" type="line"/>
    </contour>
  </outline>
</glyph>
<glyph name="Kaisymbol" format="2">
  <advance width="1266"/>
  <unicode hex="03CF"/>
  <outline>
    <contour>
      <point x="527" y="-590" type="line"/>
      <point x="413" y="-456" type="line"/>
      <point x="1027" y="30" type="line"/>
      <point x="536" y="509" type="line"/>
      <point x="362" y="360" type="line"/>
      <point x="362" y="0" type="line"/>
      <point x="170" y="0" type="line"/>
      <point x="170" y="1082" type="line"/>
      <point x="362" y="1082" type="line"/>
      <point x="362" y="560" type="line"/>
      <point x="990" y="1082" type="line"/>
      <point x="1242" y="1082" type="line"/>
      <point x="670" y="614" type="line"/>
      <point x="1278" y="14" type="line"/>
    </contour>
  </outline>
</glyph>
<glyph name="Dje" format="2">
  <advance width="1616"/>
  <unicode hex="0402"/>
  <guideline x="568" y="625" angle="90" identifier="YDADns81zF"/>
  <outline>
    <contour>
      <point x="472" y="0" type="line"/>
      <point x="472" y="924" type="line"/>
      <point x="24" y="924" type="line"/>
      <point x="24" y="1082" type="line"/>
      <point x="1152" y="1082" type="line"/>
      <point x="1152" y="924" type="line"/>
      <point x="664" y="924" type="line"/>
      <point x="664" y="0" type="line"/>
    </contour>
    <contour>
      <point x="1107" y="0" type="line"/>
      <point x="1107.0" y="182" type="line"/>
      <point x="1115.0" y="182" type="line" smooth="yes"/>
      <point x="1218.0" y="182"/>
      <point x="1319.0" y="276"/>
      <point x="1319.0" y="354" type="qcurve" smooth="yes"/>
      <point x="1319.0" y="366" type="line" smooth="yes"/>
      <point x="1319.0" y="463"/>
      <point x="1163" y="571"/>
      <point x="1010" y="571.0" type="qcurve" smooth="yes"/>
      <point x="867" y="571"/>
      <point x="638.0" y="507"/>
      <point x="568.0" y="478" type="qcurve"/>
      <point x="568.0" y="637" type="line"/>
      <point x="646.0" y="675"/>
      <point x="882" y="742.0"/>
      <point x="1048" y="742.0" type="qcurve" smooth="yes"/>
      <point x="1255" y="742"/>
      <point x="1511.0" y="539"/>
      <point x="1511.0" y="373" type="qcurve" smooth="yes"/>
      <point x="1511.0" y="353" type="line" smooth="yes"/>
      <point x="1511.0" y="203"/>
      <point x="1312.0" y="0.0"/>
      <point x="1115.0" y="0.0" type="qcurve" smooth="yes"/>
    </contour>
  </outline>
</glyph>
<glyph name="Tshe" format="2">
  <advance width="1650"/>
  <unicode hex="040B"/>
  <guideline x="568" y="683" angle="90" identifier="juO2xYoEN4"/>
  <outline>
    <contour>
      <point x="1318.0" y="0.0" type="line"/>
      <point x="1318.0" y="306" type="line" smooth="yes"/>
      <point x="1318.0" y="449.0"/>
      <point x="1169.0" y="572.0"/>
      <point x="957.0" y="572" type="qcurve" smooth="yes"/>
      <point x="876" y="572"/>
      <point x="693.0" y="559"/>
      <point x="568.0" y="538" type="qcurve"/>
      <point x="568.0" y="711" type="line"/>
      <point x="691.0" y="730"/>
      <point x="884" y="743"/>
      <point x="988.0" y="743" type="qcurve" smooth="yes"/>
      <point x="1255.0" y="743.0"/>
      <point x="1510.0" y="571.0"/>
      <point x="1510.0" y="371" type="qcurve" smooth="yes"/>
      <point x="1510" y="0" type="line"/>
    </contour>
    <contour>
      <point x="24" y="924" type="line"/>
      <point x="24" y="1082" type="line"/>
      <point x="1152" y="1082" type="line"/>
      <point x="1152" y="924" type="line"/>
      <point x="664" y="924" type="line"/>
      <point x="664" y="0" type="line"/>
      <point x="472" y="0" type="line"/>
      <point x="472" y="924" type="line"/>
    </contour>
  </outline>
</glyph>
<glyph name="Ze" format="2">
  <advance width="1260"/>
  <unicode hex="0417"/>
  <outline>
    <contour>
      <point x="639" y="134" type="qcurve" smooth="yes"/>
      <point x="812" y="134"/>
      <point x="970" y="255"/>
      <point x="970.0" y="339" type="qcurve" smooth="yes"/>
      <point x="970.0" y="428"/>
      <point x="860.0" y="504.0"/>
      <point x="710.0" y="504" type="qcurve" smooth="yes"/>
      <point x="448.0" y="504" type="line"/>
      <point x="448.0" y="654" type="line"/>
      <point x="680.0" y="654" type="line" smooth="yes"/>
      <point x="830.0" y="654.0"/>
      <point x="932" y="716"/>
      <point x="932.0" y="801" type="qcurve" smooth="yes"/>
      <point x="932.0" y="880"/>
      <point x="786.0" y="945"/>
      <point x="627.0" y="945" type="qcurve" smooth="yes"/>
      <point x="468.0" y="945"/>
      <point x="295.0" y="876.0"/>
      <point x="295.0" y="759" type="qcurve" smooth="yes"/>
      <point x="295.0" y="751" type="line"/>
      <point x="103.0" y="751" type="line"/>
      <point x="103.0" y="758" type="line" smooth="yes"/>
      <point x="103" y="910"/>
      <point x="365.0" y="1110"/>
      <point x="625.0" y="1110" type="qcurve" smooth="yes"/>
      <point x="855.0" y="1110"/>
      <point x="1122.0" y="960"/>
      <point x="1122.0" y="801" type="qcurve" smooth="yes"/>
      <point x="1122.0" y="709"/>
      <point x="1027.0" y="623"/>
      <point x="937.0" y="598" type="qcurve"/>
      <point x="937.0" y="596" type="line"/>
      <point x="1047.0" y="572"/>
      <point x="1160.0" y="453"/>
      <point x="1160.0" y="341" type="qcurve" smooth="yes"/>
      <point x="1160" y="191"/>
      <point x="875.0" y="-30"/>
      <point x="639.0" y="-30" type="qcurve" smooth="yes"/>
      <point x="389.0" y="-30"/>
      <point x="84" y="148.0"/>
      <point x="84.0" y="384" type="qcurve" smooth="yes"/>
      <point x="84.0" y="394" type="line"/>
      <point x="276.0" y="394" type="line"/>
      <point x="276.0" y="384" type="line" smooth="yes"/>
      <point x="276" y="236"/>
      <point x="456" y="134"/>
    </contour>
  </outline>
</glyph>
<glyph name="Ka" format="2">
  <advance width="1266"/>
  <unicode hex="041A"/>
  <guideline x="480" y="796" angle="90" identifier="LxfLwWU0sJ"/>
  <outline>
    <contour>
      <point x="1030" y="0" type="line"/>
      <point x="442" y="520" type="line"/>
      <point x="582" y="603" type="line"/>
      <point x="1286" y="0" type="line"/>
    </contour>
    <contour>
      <point x="266" y="610" type="line"/>
      <point x="500" y="610" type="line"/>
      <point x="1005" y="1082" type="line"/>
      <point x="1242" y="1082" type="line"/>
      <point x="558" y="452" type="line"/>
      <point x="266" y="452" type="line"/>
    </contour>
    <contour>
      <point x="170" y="0" type="line"/>
      <point x="170" y="1082" type="line"/>
      <point x="362" y="1082" type="line"/>
      <point x="362" y="0" type="line"/>
    </contour>
  </outline>
</glyph>
<glyph name="El" format="2">
  <advance width="1448"/>
  <unicode hex="041B"/>
  <outline>
    <contour>
      <point x="339" y="1082" type="line"/>
      <point x="1278" y="1082" type="line"/>
      <point x="1278" y="0" type="line"/>
      <point x="1086" y="0" type="line"/>
      <point x="1086" y="924" type="line"/>
      <point x="510" y="924" type="line"/>
      <point x="472" y="542" type="line" smooth="yes"/>
      <point x="444" y="259"/>
      <point x="313" y="-30"/>
      <point x="119" y="-30" type="qcurve" smooth="yes"/>
      <point x="95" y="-30"/>
      <point x="39" y="-23"/>
      <point x="10" y="-13" type="qcurve"/>
      <point x="10" y="151" type="line"/>
      <point x="34" y="143"/>
      <point x="74" y="138"/>
      <point x="95" y="138" type="qcurve" smooth="yes"/>
      <point x="197" y="138"/>
      <point x="273" y="337"/>
      <point x="294" y="575" type="qcurve" smooth="yes"/>
    </contour>
  </outline>
</glyph>
<glyph name="Ucyr" format="2">
  <advance width="1238"/>
  <unicode hex="0423"/>
  <outline>
    <contour>
      <point x="152" y="156" type="line"/>
      <point x="178" y="148"/>
      <point x="242" y="138"/>
      <point x="272" y="138" type="qcurve" smooth="yes"/>
      <point x="368" y="138"/>
      <point x="486" y="177"/>
      <point x="554" y="310" type="qcurve"/>
      <point x="554" y="310" type="line"/>
      <point x="15" y="1082" type="line"/>
      <point x="240" y="1082" type="line"/>
      <point x="580" y="585" type="line" smooth="yes"/>
      <point x="613" y="537"/>
      <point x="631" y="505"/>
      <point x="647" y="469" type="qcurve"/>
      <point x="653" y="469" type="line"/>
      <point x="668" y="505"/>
      <point x="682" y="536"/>
      <point x="712" y="585" type="qcurve" smooth="yes"/>
      <point x="1017" y="1082" type="line"/>
      <point x="1223" y="1082" type="line"/>
      <point x="756" y="324" type="line" smooth="yes"/>
      <point x="611" y="89"/>
      <point x="449" y="-30"/>
      <point x="301" y="-30" type="qcurve" smooth="yes"/>
      <point x="242" y="-30"/>
      <point x="180" y="-20"/>
      <point x="152" y="-10" type="qcurve"/>
    </contour>
  </outline>
</glyph>
<glyph name="Soft" format="2">
  <advance width="1200"/>
  <unicode hex="042C"/>
  <outline>
    <contour>
      <point x="170" y="1082" type="line"/>
      <point x="170.0" y="0.0" type="line"/>
      <point x="652.0" y="0.0" type="line" smooth="yes"/>
      <point x="892.0" y="0.0"/>
      <point x="1150.0" y="216"/>
      <point x="1150.0" y="392" type="qcurve" smooth="yes"/>
      <point x="1150.0" y="568"/>
      <point x="892.0" y="780"/>
      <point x="652.0" y="780" type="qcurve" smooth="yes"/>
      <point x="362.0" y="780" type="line"/>
      <point x="362" y="1082" type="line"/>
    </contour>
    <contour>
      <point x="362.0" y="620" type="line"/>
      <point x="652.0" y="620" type="line" smooth="yes"/>
      <point x="822.0" y="620"/>
      <point x="958.0" y="488"/>
      <point x="958.0" y="390" type="qcurve" smooth="yes"/>
      <point x="958.0" y="293"/>
      <point x="822.0" y="158.0"/>
      <point x="652.0" y="158.0" type="qcurve" smooth="yes"/>
      <point x="362.0" y="158.0" type="line"/>
    </contour>
  </outline>
</glyph>
<glyph name="Ecyr" format="2">
  <advance width="1359"/>
  <unicode hex="042D"/>
  <guideline x="1147" y="753" angle="90" identifier="Ovo68woMtl"/>
  <outline>
    <contour>
      <point x="1147" y="630" type="line"/>
      <point x="1147" y="472" type="line"/>
      <point x="404" y="472" type="line"/>
      <point x="404" y="630" type="line"/>
    </contour>
    <contour>
      <point x="1051.0" y="490" type="qcurve" smooth="yes"/>
      <point x="1051.0" y="580" type="line" smooth="yes"/>
      <point x="1051.0" y="772"/>
      <point x="831.0" y="962"/>
      <point x="645.0" y="962" type="qcurve" smooth="yes"/>
      <point x="470.0" y="962"/>
      <point x="277.0" y="821.0"/>
      <point x="277.0" y="720" type="qcurve" smooth="yes"/>
      <point x="277.0" y="711" type="line"/>
      <point x="85.0" y="711" type="line"/>
      <point x="85.0" y="720" type="line" smooth="yes"/>
      <point x="85" y="874"/>
      <point x="382.0" y="1127"/>
      <point x="645.0" y="1127" type="qcurve" smooth="yes"/>
      <point x="916.0" y="1127"/>
      <point x="1245.0" y="845"/>
      <point x="1245.0" y="600" type="qcurve" smooth="yes"/>
      <point x="1245.0" y="533" type="line" smooth="yes"/>
      <point x="1245.0" y="245"/>
      <point x="904.0" y="-30"/>
      <point x="640.0" y="-30" type="qcurve" smooth="yes"/>
      <point x="380.0" y="-30"/>
      <point x="85" y="220.0"/>
      <point x="85.0" y="402" type="qcurve" smooth="yes"/>
      <point x="85.0" y="407" type="line"/>
      <point x="277.0" y="407" type="line"/>
      <point x="277.0" y="402" type="line" smooth="yes"/>
      <point x="277" y="281"/>
      <point x="457.0" y="134"/>
      <point x="640.0" y="134" type="qcurve" smooth="yes"/>
      <point x="850.0" y="134"/>
      <point x="1051.0" y="313"/>
    </contour>
  </outline>
</glyph>
<glyph name="Yu" format="2">
  <advance width="1960"/>
  <unicode hex="042E"/>
  <guideline x="732" y="785" angle="90" identifier="6nH5tb4DEh"/>
  <outline>
    <contour>
      <point x="170" y="0" type="line"/>
      <point x="170" y="1082" type="line"/>
      <point x="362" y="1082" type="line"/>
      <point x="362" y="640" type="line"/>
      <point x="732" y="640" type="line"/>
      <point x="732" y="482" type="line"/>
      <point x="362" y="482" type="line"/>
      <point x="362" y="0" type="line"/>
    </contour>
    <contour>
      <point x="635.0" y="526" type="qcurve" smooth="yes"/>
      <point x="635.0" y="598" type="line" smooth="yes"/>
      <point x="635.0" y="860"/>
      <point x="964.0" y="1154"/>
      <point x="1240.0" y="1154" type="qcurve" smooth="yes"/>
      <point x="1516.0" y="1154"/>
      <point x="1845.0" y="860"/>
      <point x="1845.0" y="598" type="qcurve" smooth="yes"/>
      <point x="1845.0" y="526" type="line" smooth="yes"/>
      <point x="1845.0" y="264"/>
      <point x="1516.0" y="-30"/>
      <point x="1240.0" y="-30" type="qcurve" smooth="yes"/>
      <point x="964.0" y="-30"/>
      <point x="635.0" y="264"/>
    </contour>
    <contour>
      <point x="829.0" y="529" type="line" smooth="yes"/>
      <point x="829.0" y="344"/>
      <point x="1044.0" y="134"/>
      <point x="1240.0" y="134" type="qcurve" smooth="yes"/>
      <point x="1435.0" y="134"/>
      <point x="1651.0" y="344"/>
      <point x="1651.0" y="529" type="qcurve" smooth="yes"/>
      <point x="1651.0" y="595" type="line" smooth="yes"/>
      <point x="1651.0" y="780"/>
      <point x="1435.0" y="990"/>
      <point x="1240.0" y="990" type="qcurve" smooth="yes"/>
      <point x="1044.0" y="990"/>
      <point x="829.0" y="780"/>
      <point x="829.0" y="595" type="qcurve" smooth="yes"/>
    </contour>
  </outline>
</glyph>
<glyph name="em" format="2">
  <advance width="1506"/>
  <unicode hex="043C"/>
  <outline>
    <contour>
      <point x="148" y="0" type="line"/>
      <point x="148" y="1052" type="line"/>
      <point x="402" y="1052" type="line"/>
      <point x="707" y="327" type="line" smooth="yes"/>
      <point x="731" y="269"/>
      <point x="745" y="224"/>
      <point x="750" y="200" type="qcurve"/>
      <point x="760" y="200" type="line"/>
      <point x="765" y="224"/>
      <point x="778" y="269"/>
      <point x="802" y="325" type="qcurve" smooth="yes"/>
      <point x="1109" y="1052" type="line"/>
      <point x="1358" y="1052" type="line"/>
      <point x="1358" y="0" type="line"/>
      <point x="1181" y="0" type="line"/>
      <point x="1181" y="716" type="line" smooth="yes"/>
      <point x="1181" y="775"/>
      <point x="1184" y="826"/>
      <point x="1186" y="846" type="qcurve"/>
      <point x="1177" y="846" type="line"/>
      <point x="1172" y="826"/>
      <point x="1158" y="776"/>
      <point x="1134" y="719" type="qcurve" smooth="yes"/>
      <point x="830" y="0" type="line"/>
      <point x="670" y="0" type="line"/>
      <point x="365" y="722" type="line" smooth="yes"/>
      <point x="344" y="773"/>
      <point x="329" y="826"/>
      <point x="324" y="846" type="qcurve"/>
      <point x="314" y="846" type="line"/>
      <point x="316" y="826"/>
      <point x="319" y="776"/>
      <point x="319" y="723" type="qcurve" smooth="yes"/>
      <point x="319" y="0" type="line"/>
    </contour>
  </outline>
</glyph>
<glyph name="Gheup" format="2">
  <advance width="1077"/>
  <unicode hex="0490"/>
  <outline>
    <contour>
      <point x="170" y="0" type="line"/>
      <point x="170" y="1082" type="line"/>
      <point x="880" y="1082" type="line"/>
      <point x="880" y="1372" type="line"/>
      <point x="1052" y="1372" type="line"/>
      <point x="1052" y="924" type="line"/>
      <point x="362" y="924" type="line"/>
      <point x="362" y="0" type="line"/>
    </contour>
  </outline>
</glyph>
<glyph name="Zhedescender" format="2">
  <advance width="1794"/>
  <unicode hex="0496"/>
  <outline>
    <contour>
      <point x="794" y="0" type="line"/>
      <point x="794" y="1082" type="line"/>
      <point x="986" y="1082" type="line"/>
      <point x="986" y="0" type="line"/>
    </contour>
    <contour>
      <point x="1574" y="0" type="line"/>
      <point x="986" y="503" type="line"/>
      <point x="1127" y="584" type="line"/>
      <point x="1810" y="0" type="line"/>
    </contour>
    <contour>
      <point x="206" y="0" type="line"/>
      <point x="-20" y="0" type="line"/>
      <point x="644" y="586" type="line"/>
      <point x="794" y="503" type="line"/>
    </contour>
    <contour>
      <point x="890" y="613" type="line"/>
      <point x="890" y="455" type="line"/>
      <point x="676" y="455" type="line"/>
      <point x="12" y="1082" type="line"/>
      <point x="241" y="1082" type="line"/>
      <point x="756" y="613" type="line"/>
    </contour>
    <contour>
      <point x="890" y="613" type="line"/>
      <point x="1024" y="613" type="line"/>
      <point x="1539" y="1082" type="line"/>
      <point x="1766" y="1082" type="line"/>
      <point x="1102" y="455" type="line"/>
      <point x="890" y="455" type="line"/>
    </contour>
    <contour>
      <point x="1574" y="0" type="line"/>
      <point x="1574" y="158" type="line"/>
      <point x="1846" y="158" type="line"/>
      <point x="1846" y="-290" type="line"/>
      <point x="1674" y="-290" type="line"/>
      <point x="1674" y="0" type="line"/>
    </contour>
  </outline>
</glyph>
<glyph name="Kabashkircyr" format="2">
  <advance width="1495"/>
  <unicode hex="04A0"/>
  <outline>
    <contour>
      <point x="1259" y="0" type="line"/>
      <point x="671" y="520" type="line"/>
      <point x="811" y="603" type="line"/>
      <point x="1515" y="0" type="line"/>
    </contour>
    <contour>
      <point x="495" y="610" type="line"/>
      <point x="729" y="610" type="line"/>
      <point x="1234" y="1082" type="line"/>
      <point x="1471" y="1082" type="line"/>
      <point x="787" y="452" type="line"/>
      <point x="495" y="452" type="line"/>
    </contour>
    <contour>
      <point x="399" y="0" type="line"/>
      <point x="399" y="924" type="line"/>
      <point x="24" y="924" type="line"/>
      <point x="24" y="1082" type="line"/>
      <point x="591" y="1082" type="line"/>
      <point x="591" y="0" type="line"/>
    </contour>
  </outline>
</glyph>
<glyph name="Endescender" format="2">
  <advance width="1498"/>
  <unicode hex="04A2"/>
  <outline>
    <contour>
      <point x="170" y="0" type="line"/>
      <point x="170" y="1082" type="line"/>
      <point x="362" y="1082" type="line"/>
      <point x="362" y="637" type="line"/>
      <point x="1096" y="637" type="line"/>
      <point x="1096" y="1082" type="line"/>
      <point x="1288" y="1082" type="line"/>
      <point x="1288" y="158" type="line"/>
      <point x="1468" y="158" type="line"/>
      <point x="1468" y="-290" type="line"/>
      <point x="1296" y="-290" type="line"/>
      <point x="1296" y="0" type="line"/>
      <point x="1096" y="0" type="line"/>
      <point x="1096" y="479" type="line"/>
      <point x="362" y="479" type="line"/>
      <point x="362" y="0" type="line"/>
    </contour>
  </outline>
</glyph>
<glyph name="Ustraightstroke" format="2">
  <advance width="1228"/>
  <unicode hex="04B0"/>
  <outline>
    <contour>
      <point x="198" y="404" type="line"/>
      <point x="1030" y="404" type="line"/>
      <point x="1030" y="238" type="line"/>
      <point x="198" y="238" type="line"/>
    </contour>
    <contour>
      <point x="518" y="0" type="line"/>
      <point x="518" y="404" type="line"/>
      <point x="15" y="1082" type="line"/>
      <point x="231" y="1082" type="line"/>
      <point x="559" y="624" type="line" smooth="yes"/>
      <point x="579" y="596"/>
      <point x="602" y="560"/>
      <point x="613" y="533" type="qcurve"/>
      <point x="619" y="533" type="line"/>
      <point x="630" y="560"/>
      <point x="653" y="597"/>
      <point x="673" y="624" type="qcurve" smooth="yes"/>
      <point x="1005" y="1082" type="line"/>
      <point x="1213" y="1082" type="line"/>
      <point x="710" y="404" type="line"/>
      <point x="710" y="0" type="line"/>
    </contour>
  </outline>
</glyph>
<glyph name="Hadescender" format="2">
  <advance width="1221"/>
  <unicode hex="04B2"/>
  <outline>
    <contour>
      <point x="981" y="158" type="line"/>
      <point x="1273" y="158" type="line"/>
      <point x="1273" y="-290" type="line"/>
      <point x="1101" y="-290" type="line"/>
      <point x="1101" y="0" type="line"/>
      <point x="981" y="0" type="line"/>
    </contour>
    <contour>
      <point x="25" y="0" type="line"/>
      <point x="545" y="599" type="line"/>
      <point x="559" y="599" type="line"/>
      <point x="956" y="1082" type="line"/>
      <point x="1172" y="1082" type="line"/>
      <point x="677" y="498" type="line"/>
      <point x="663" y="498" type="line"/>
      <point x="239" y="0" type="line"/>
    </contour>
    <contour>
      <point x="50" y="1082" type="line"/>
      <point x="270" y="1082" type="line"/>
      <point x="667" y="599" type="line"/>
      <point x="677" y="599" type="line"/>
      <point x="1197" y="0" type="line"/>
      <point x="977" y="0" type="line"/>
      <point x="555" y="498" type="line"/>
      <point x="545" y="498" type="line"/>
    </contour>
  </outline>
</glyph>
<glyph name="Cheverticalstroke-cy" format="2">
  <advance width="1388"/>
  <unicode hex="04B8"/>
  <outline>
    <contour>
      <point x="766" y="866" type="line"/>
      <point x="766" y="90" type="line"/>
      <point x="596" y="90" type="line"/>
      <point x="596" y="866" type="line"/>
    </contour>
    <contour>
      <point x="332" y="832" type="line" smooth="yes"/>
      <point x="332" y="654"/>
      <point x="495" y="534"/>
      <point x="693" y="534" type="qcurve" smooth="yes"/>
      <point x="812" y="534"/>
      <point x="1023" y="554"/>
      <point x="1123" y="575" type="qcurve"/>
      <point x="1123" y="417" type="line"/>
      <point x="989" y="395"/>
      <point x="803" y="376"/>
      <point x="678" y="376" type="qcurve" smooth="yes"/>
      <point x="367" y="376"/>
      <point x="140" y="607"/>
      <point x="140" y="835" type="qcurve" smooth="yes"/>
      <point x="140" y="1082" type="line"/>
      <point x="332" y="1082" type="line"/>
    </contour>
    <contour>
      <point x="1218" y="1082" type="line"/>
      <point x="1218" y="0" type="line"/>
      <point x="1026" y="0" type="line"/>
      <point x="1026" y="1082" type="line"/>
    </contour>
  </outline>
</glyph>
<glyph name="Shha" format="2">
  <advance width="1388"/>
  <unicode hex="04BA"/>
  <outline>
    <contour>
      <point x="1056" y="290" type="line" smooth="yes"/>
      <point x="1056" y="468"/>
      <point x="893" y="588"/>
      <point x="695" y="588" type="qcurve" smooth="yes"/>
      <point x="576" y="588"/>
      <point x="366" y="568"/>
      <point x="266" y="547" type="qcurve"/>
      <point x="266" y="705" type="line"/>
      <point x="400" y="727"/>
      <point x="585" y="746"/>
      <point x="710" y="746" type="qcurve" smooth="yes"/>
      <point x="1021" y="746"/>
      <point x="1248" y="515"/>
      <point x="1248" y="287" type="qcurve" smooth="yes"/>
      <point x="1248" y="0" type="line"/>
      <point x="1056" y="0" type="line"/>
    </contour>
    <contour>
      <point x="170" y="0" type="line"/>
      <point x="170" y="1082" type="line"/>
      <point x="362" y="1082" type="line"/>
      <point x="362" y="0" type="line"/>
    </contour>
  </outline>
</glyph>
<glyph name="Schwacyr" format="2">
  <advance width="1440"/>
  <unicode hex="04D8"/>
  <guideline x="1229" y="803" angle="90" identifier="VFmslpHHWY"/>
  <guideline x="212" y="651" angle="90" identifier="xUBAC48rkv"/>
  <outline>
    <contour>
      <point x="214" y="591" type="line"/>
      <point x="1230" y="591" type="line"/>
      <point x="1230" y="433" type="line"/>
      <point x="214" y="433" type="line"/>
    </contour>
    <contour>
      <point x="1131.0" y="574" type="line" smooth="yes"/>
      <point x="1131.0" y="758"/>
      <point x="902.0" y="954"/>
      <point x="724.0" y="954" type="qcurve" smooth="yes"/>
      <point x="539.0" y="954"/>
      <point x="337.0" y="821"/>
      <point x="337.0" y="722" type="qcurve" smooth="yes"/>
      <point x="337.0" y="709" type="line"/>
      <point x="145.0" y="709" type="line"/>
      <point x="145.0" y="750" type="line" smooth="yes"/>
      <point x="145" y="902"/>
      <point x="451.0" y="1118"/>
      <point x="724.0" y="1118" type="qcurve" smooth="yes"/>
      <point x="987.0" y="1118"/>
      <point x="1325.0" y="838"/>
      <point x="1325.0" y="595" type="qcurve" smooth="yes"/>
      <point x="1325.0" y="528" type="line" smooth="yes"/>
      <point x="1325.0" y="255"/>
      <point x="979.0" y="-30"/>
      <point x="720.0" y="-30" type="qcurve" smooth="yes"/>
      <point x="461.0" y="-30"/>
      <point x="115.0" y="240"/>
      <point x="115.0" y="498" type="qcurve" smooth="yes"/>
      <point x="115.0" y="591" type="line"/>
      <point x="309.0" y="591" type="line"/>
      <point x="309.0" y="473" type="line" smooth="yes"/>
      <point x="309.0" y="316"/>
      <point x="510.0" y="134.0"/>
      <point x="720.0" y="134.0" type="qcurve" smooth="yes"/>
      <point x="930.0" y="134.0"/>
      <point x="1131.0" y="324"/>
      <point x="1131.0" y="485" type="qcurve" smooth="yes"/>
    </contour>
  </outline>
</glyph>
<glyph name="Germandbls" format="2">
  <advance width="1449"/>
  <unicode hex="1E9E"/>
  <outline>
    <contour>
      <point x="178" y="812" type="line" smooth="yes"/>
      <point x="178.0" y="952.0"/>
      <point x="399" y="1120"/>
      <point x="611" y="1120" type="qcurve" smooth="yes"/>
      <point x="837" y="1120"/>
      <point x="1011" y="977"/>
      <point x="1011.0" y="902" type="qcurve" smooth="yes"/>
      <point x="1011" y="822"/>
      <point x="917" y="741"/>
      <point x="867" y="710" type="qcurve" smooth="yes"/>
      <point x="816" y="678"/>
      <point x="750" y="645"/>
      <point x="750" y="630" type="qcurve" smooth="yes"/>
      <point x="750" y="598"/>
      <point x="816" y="578"/>
      <point x="1006" y="528" type="qcurve" smooth="yes"/>
      <point x="1199" y="477"/>
      <point x="1369" y="346"/>
      <point x="1369" y="237" type="qcurve" smooth="yes"/>
      <point x="1369" y="130"/>
      <point x="1126.0" y="-30"/>
      <point x="940.0" y="-30" type="qcurve" smooth="yes"/>
      <point x="700.0" y="-30"/>
      <point x="465.0" y="124"/>
      <point x="465.0" y="281" type="qcurve" smooth="yes"/>
      <point x="465.0" y="295" type="line"/>
      <point x="668.0" y="293" type="line"/>
      <point x="668.0" y="280" type="line" smooth="yes"/>
      <point x="668" y="209"/>
      <point x="793.0" y="135"/>
      <point x="929.0" y="135" type="qcurve" smooth="yes"/>
      <point x="1034.0" y="135"/>
      <point x="1172" y="190"/>
      <point x="1172" y="236" type="qcurve" smooth="yes"/>
      <point x="1172" y="286"/>
      <point x="1040" y="350"/>
      <point x="869" y="388" type="qcurve" smooth="yes"/>
      <point x="644" y="438"/>
      <point x="524" y="524"/>
      <point x="524" y="568" type="qcurve" smooth="yes"/>
      <point x="524" y="636"/>
      <point x="618" y="725"/>
      <point x="683" y="764" type="qcurve"/>
      <point x="737" y="798"/>
      <point x="814" y="849"/>
      <point x="814.0" y="883" type="qcurve" smooth="yes"/>
      <point x="814" y="926"/>
      <point x="722" y="959"/>
      <point x="617" y="959" type="qcurve" smooth="yes"/>
      <point x="496" y="959"/>
      <point x="370.0" y="904.0"/>
      <point x="370" y="791" type="qcurve" smooth="yes"/>
      <point x="370" y="355" type="line" smooth="yes"/>
      <point x="370" y="184"/>
      <point x="203" y="-16"/>
      <point x="68" y="-16" type="qcurve" smooth="yes"/>
      <point x="55" y="-16"/>
      <point x="28" y="-14"/>
      <point x="15" y="-12" type="qcurve"/>
      <point x="13" y="172" type="line"/>
      <point x="22" y="169"/>
      <point x="41" y="167"/>
      <point x="50" y="167" type="qcurve" smooth="yes"/>
      <point x="110" y="167"/>
      <point x="178" y="264"/>
      <point x="178" y="355" type="qcurve" smooth="yes"/>
    </contour>
  </outline>
</glyph>
<glyph name="guilsinglleft" format="2">
  <advance width="652"/>
  <unicode hex="2039"/>
  <guideline x="0" y="901" angle="0" identifier="Amp5Ormvx4"/>
  <guideline x="0" y="555" angle="0" identifier="JDX5vz3jKp"/>
  <outline>
    <contour>
      <point x="108" y="522" type="line"/>
      <point x="108" y="581" type="line"/>
      <point x="403" y="949" type="line"/>
      <point x="565" y="949" type="line"/>
      <point x="307" y="551" type="line"/>
      <point x="565" y="153" type="line"/>
      <point x="403" y="153" type="line"/>
    </contour>
  </outline>
</glyph>
<glyph name="manat" format="2">
  <advance width="1024"/>
  <unicode hex="20BC"/>
  <outline>
    <contour>
      <point x="959" y="916" type="qcurve" smooth="yes"/>
      <point x="959" y="0" type="line"/>
      <point x="777" y="0" type="line"/>
      <point x="777" y="916" type="line" smooth="yes"/>
      <point x="777" y="1078"/>
      <point x="640" y="1252"/>
      <point x="512" y="1252" type="qcurve" smooth="yes"/>
      <point x="386" y="1252"/>
      <point x="249" y="1078"/>
      <point x="247" y="916" type="qcurve" smooth="yes"/>
      <point x="247" y="0" type="line"/>
      <point x="65" y="0" type="line"/>
      <point x="65" y="916" type="line" smooth="yes"/>
      <point x="65" y="1157"/>
      <point x="297" y="1416"/>
      <point x="512" y="1416" type="qcurve" smooth="yes"/>
      <point x="724" y="1416"/>
      <point x="956" y="1157"/>
    </contour>
    <contour>
      <point x="592" y="0" type="line"/>
      <point x="432" y="0" type="line"/>
      <point x="432" y="1582" type="line"/>
      <point x="592" y="1582" type="line"/>
    </contour>
  </outline>
</glyph>
<glyph name="ruble" format="2">
  <advance width="1024"/>
  <unicode hex="20BD"/>
  <outline>
    <contour>
      <point x="526" y="611" type="qcurve" smooth="yes"/>
      <point x="30" y="611" type="line"/>
      <point x="30" y="768" type="line"/>
      <point x="526" y="768" type="line" smooth="yes"/>
      <point x="689" y="768"/>
      <point x="842" y="913"/>
      <point x="842" y="1033" type="qcurve" smooth="yes"/>
      <point x="842" y="1138"/>
      <point x="695" y="1298"/>
      <point x="526" y="1298" type="qcurve" smooth="yes"/>
      <point x="367" y="1298" type="line"/>
      <point x="367" y="0" type="line"/>
      <point x="188" y="0" type="line"/>
      <point x="188" y="1456" type="line"/>
      <point x="526" y="1456" type="line" smooth="yes"/>
      <point x="772" y="1456"/>
      <point x="1034" y="1217"/>
      <point x="1034" y="1035" type="qcurve" smooth="yes"/>
      <point x="1034" y="835"/>
      <point x="772" y="611"/>
    </contour>
    <contour>
      <point x="754" y="445" type="line"/>
      <point x="754" y="286" type="line"/>
      <point x="30" y="286" type="line"/>
      <point x="30" y="445" type="line"/>
    </contour>
  </outline>
</glyph>
<glyph name="El.bgr" format="2">
  <advance width="1260"/>
  <outline>
    <contour>
      <point x="1260" y="0" type="line"/>
      <point x="1056" y="0" type="line"/>
      <point x="670" y="768" type="line" smooth="yes"/>
      <point x="655" y="798"/>
      <point x="642" y="852"/>
      <point x="633" y="882" type="qcurve"/>
      <point x="624" y="882" type="line"/>
      <point x="615" y="852"/>
      <point x="601" y="798"/>
      <point x="586" y="768" type="qcurve" smooth="yes"/>
      <point x="196" y="0" type="line"/>
      <point x="0" y="0" type="line"/>
      <point x="544" y="1092" type="line"/>
      <point x="716" y="1092" type="line"/>
    </contour>
  </outline>
</glyph>
<glyph name="Zhe.bgr" format="2">
  <advance width="1935"/>
  <outline>
    <contour>
      <point x="1709" y="0" type="line"/>
      <point x="1155" y="556" type="line"/>
      <point x="1295" y="664" type="line"/>
      <point x="1955" y="0" type="line"/>
    </contour>
    <contour>
      <point x="221" y="0" type="line"/>
      <point x="-20" y="0" type="line"/>
      <point x="632" y="670" type="line"/>
      <point x="765" y="557" type="line"/>
    </contour>
    <contour>
      <point x="869" y="0" type="line"/>
      <point x="869" y="386" type="line"/>
      <point x="16" y="1082" type="line"/>
      <point x="261" y="1082" type="line"/>
      <point x="869" y="578" type="line"/>
      <point x="869" y="1082" type="line"/>
      <point x="1061" y="1082" type="line"/>
      <point x="1061" y="578" type="line"/>
      <point x="1669" y="1082" type="line"/>
      <point x="1911" y="1082" type="line"/>
      <point x="1061" y="389" type="line"/>
      <point x="1061" y="0" type="line"/>
    </contour>
  </outline>
</glyph>
<glyph name="diagonalbarO" format="2">
  <advance width="623"/>
  <outline>
    <contour>
      <point x="24" y="-30" type="line"/>
      <point x="105" y="267" type="line"/>
      <point x="123" y="262" type="line"/>
      <point x="281" y="871" type="line"/>
      <point x="389" y="803" type="line"/>
      <point x="244" y="235" type="line"/>
      <point x="264" y="231" type="line"/>
      <point x="194" y="-30" type="line"/>
    </contour>
    <contour>
      <point x="430" y="1534" type="line"/>
      <point x="601" y="1534" type="line"/>
      <point x="528" y="1258" type="line"/>
      <point x="507" y="1262" type="line"/>
      <point x="389" y="803" type="line"/>
      <point x="281" y="871" type="line"/>
      <point x="387" y="1289" type="line"/>
      <point x="367" y="1294" type="line"/>
    </contour>
  </outline>
</glyph>
